<?xml version="1.0" encoding="UTF-8"?>
<svg id="Ebene_1" data-name="Ebene 1" xmlns="http://www.w3.org/2000/svg" viewBox="0 0 40.12 42">
  <defs>
    <style>
      .cls-1 {
        fill-rule: evenodd;
        stroke-width: 0px;
      }
    </style>
  </defs>
  <path class="cls-1" d="M40.12,21.11c0-.8-.32-1.56-.88-2.12-.56-.56-1.33-.88-2.12-.88H14.93c-.27,0-.52-.11-.71-.29-.19-.19-.29-.44-.29-.71l.03-5.03c0-.8-.31-1.57-.87-2.13-.56-.57-1.33-.88-2.13-.88H3c-1.66,0-3,1.34-3,3v26.95c0,1.66,1.34,3,3,3h34.12c.8,0,1.56-.32,2.12-.88.56-.56.88-1.33.88-2.12v-17.89ZM38.12,21.11v17.89c0,.27-.1.52-.29.71-.19.19-.44.29-.71.29H3c-.55,0-1-.45-1-1V12.06c0-.55.45-1,1-1h7.96c.27,0,.52.11.71.29.19.19.29.44.29.71l-.03,5.03c0,.8.31,1.57.87,2.13.56.57,1.33.88,2.13.88h22.19c.27,0,.52.1.71.29.19.19.29.44.29.71Z"/>
  <path class="cls-1" d="M4.95,15.58h4.48c.55,0,1-.45,1-1s-.45-1-1-1h-4.48c-.55,0-1,.45-1,1s.45,1,1,1Z"/>
  <path class="cls-1" d="M2.24,9.15C.95,9.49,0,10.66,0,12.05v26.95c0,1.66,1.34,3,3,3h34.12c.8,0,1.56-.32,2.12-.88.56-.56.88-1.33.88-2.12v-17.89c0-.8-.32-1.56-.88-2.12-.08-.08-.16-.15-.24-.22v-8.98c0-.79-.32-1.56-.88-2.12-.56-.56-1.33-.88-2.12-.88h-2.29v-3.79c0-.8-.32-1.56-.88-2.12-.56-.56-1.33-.88-2.12-.88H5.24c-.8,0-1.56.32-2.12.88-.56.56-.88,1.32-.88,2.12v6.15ZM14.92,20.11h22.19c.27,0,.52.1.71.29.19.19.29.44.29.71v17.89c0,.26-.11.52-.29.71-.19.19-.44.29-.71.29H3c-.55,0-1-.45-1-1V12.05c0-.55.45-1,1-1h7.96c.27,0,.52.11.71.29.19.19.29.45.29.71l-.03,5.03c0,.8.31,1.57.87,2.13.56.57,1.33.89,2.13.89ZM33.71,8.79v9.32h3.29v-8.32c0-.26-.11-.52-.29-.71-.19-.19-.44-.29-.71-.29h-2.29ZM13.95,13.58v2s12.84,0,12.84,0c.55,0,1-.45,1-1s-.45-1-1-1h-12.84ZM11.04,9.06c.77.02,1.5.34,2.04.88.32.32.55.7.7,1.11h13c.55,0,1-.45,1-1s-.45-1-1-1h-15.7s-.03,0-.05,0ZM8.82,6.53h17.97c.55,0,1-.45,1-1s-.45-1-1-1H8.82c-.55,0-1,.45-1,1s.45,1,1,1Z"/>
</svg>