<?xml version="1.0" encoding="UTF-8"?>
<svg id="Ebene_1" data-name="Ebene 1" xmlns="http://www.w3.org/2000/svg" viewBox="0 0 90.26 95">
  <defs>
    <style>
      .cls-1 {
        stroke-width: 0px;
      }
    </style>
  </defs>
  <path class="cls-1" d="M82.56,79.78l6.11-2.25c1.98-.73,2.15-3.46.28-4.44l-23.3-12.1c-1.84-.96-3.96.68-3.49,2.7l5.88,25.59c.47,2.06,3.16,2.58,4.37.84l3.71-5.35,7.2,9.29c.82,1.06,2.35,1.26,3.41.43l2.59-2.01c1.06-.82,1.26-2.35.43-3.41l-7.2-9.29h0Z"/>
  <path class="cls-1" d="M87.36,7.86c0-4.35-3.5-7.86-7.86-7.86H7.86C3.51,0,0,3.5,0,7.86v9.44h87.36V7.86ZM9.82,11.89c-1.82,0-3.27-1.48-3.27-3.3s1.46-3.27,3.27-3.27,3.3,1.46,3.3,3.27-1.48,3.3-3.3,3.3ZM19.93,11.89c-1.82,0-3.27-1.48-3.27-3.3s1.46-3.27,3.27-3.27,3.3,1.46,3.3,3.27-1.48,3.3-3.3,3.3ZM30.03,11.89c-1.82,0-3.3-1.48-3.3-3.3s1.48-3.27,3.3-3.27,3.27,1.46,3.27,3.27-1.46,3.3-3.27,3.3ZM76.41,11.15h-16.4c-1.41,0-2.56-1.15-2.56-2.56s1.15-2.56,2.56-2.56h16.4c1.41,0,2.56,1.15,2.56,2.56s-1.15,2.56-2.56,2.56Z"/>
  <path class="cls-1" d="M58.61,58.46c1.46-1.82,3.61-2.86,5.91-2.86,1.2,0,2.41.28,3.48.84l19.37,10.05V22.41H0v47.58c0,4.35,3.5,7.86,7.86,7.86h52.32l-2.99-13.02c-.54-2.25,0-4.58,1.43-6.37h0ZM48.38,32.03h26.99c1.41,0,2.56,1.15,2.56,2.56s-1.15,2.56-2.56,2.56h-26.99c-1.41,0-2.56-1.15-2.56-2.56s1.15-2.56,2.56-2.56ZM26.73,30.7c4.79,0,8.67,3.86,8.67,8.65s-3.89,8.65-8.67,8.65-8.65-3.86-8.65-8.65,3.89-8.65,8.65-8.65ZM42.42,66.41c0,1.18-.95,2.12-2.1,2.12H13.18c-1.15,0-2.12-.95-2.12-2.12v-2.97c0-1.87.33-3.73.95-5.5,1.28-3.61,4.02-6.42,7.42-7.91,2.07,1.43,4.63,2.28,7.32,2.28s5.25-.84,7.34-2.3c3.38,1.51,6.11,4.3,7.42,7.93v.03c.61,1.77.92,3.58.92,5.45v2.99h0ZM45.82,46.54c0-1.41,1.15-2.56,2.56-2.56h26.99c1.41,0,2.56,1.15,2.56,2.56s-1.15,2.56-2.56,2.56h-26.99c-1.41,0-2.56-1.15-2.56-2.56Z"/>
</svg>