<?xml version="1.0" encoding="UTF-8"?>
<svg id="Ebene_1" data-name="Ebene 1" xmlns="http://www.w3.org/2000/svg" viewBox="0 0 326.17 463.38">
  <defs>
    <style>
      .cls-1 {
        stroke-width: 0px;
      }
    </style>
  </defs>
  <path class="cls-1" d="M163.09,70.03c-64.69.03-117.11,52.5-117.08,117.2.01,25.18,8.14,49.69,23.18,69.89l33.06,44.37c-5.66,6.31-8.89,13.64-8.89,21.53v60.53c0,12.25,7.73,23.17,20.37,31.01v2.31c.02,25.71,20.88,46.53,46.58,46.52,25.37-.02,46.06-20.35,46.51-45.72,15.94-7.91,26.03-20.14,26.03-34.12v-60.53c0-7.88-3.28-15.16-8.94-21.46l33.11-44.42c38.63-51.91,27.86-125.3-24.04-163.93-20.2-15.03-44.71-23.16-69.89-23.17ZM160.3,448.03c-15.23-.04-28.21-11.09-30.66-26.13,10.81,3.5,22.1,5.25,33.46,5.17,9.3.04,18.56-1.11,27.57-3.42-3.18,14.23-15.79,24.35-30.37,24.38h0ZM163.11,411.66c-32.03,0-54.34-14.82-54.34-28.12v-13.81c12.69,9.79,32.14,15.97,54.34,15.97s41.66-6.17,54.35-15.97v13.81c0,13.3-22.32,28.12-54.35,28.12h0ZM217.45,323.01v19.16c0,13.3-22.32,28.12-54.35,28.12s-54.34-14.82-54.34-28.12v-19.16c.14-3.12,1.23-6.13,3.11-8.62l9.91,13.3c7.49,10.22,23.32,16.57,41.33,16.59,18-.01,33.83-6.37,41.28-16.54l9.94-13.34c1.89,2.49,2.97,5.49,3.11,8.61h0ZM244.68,247.92l-52.68,70.68c-3.62,4.95-14.21,10.27-28.89,10.28-14.69-.01-25.28-5.34-28.94-10.34l-52.64-70.63c-30.13-40.48-26.03-96.94,9.65-132.63h0c39.72-39.72,104.11-39.72,143.83,0,35.69,35.69,39.8,92.16,9.66,132.64h0Z"/>
  <path class="cls-1" d="M187.01,180.22l-55.52,32.06c-3.69,2.12-4.96,6.82-2.85,10.51,2.12,3.69,6.82,4.96,10.51,2.85.01,0,.02-.01.04-.02l16.23-9.37v77.82c-.01,4.25,3.42,7.71,7.67,7.73,4.25.01,7.71-3.42,7.73-7.67,0-.02,0-.04,0-.05v-86.71l23.9-13.8c3.68-2.14,4.93-6.85,2.79-10.52-2.13-3.66-6.81-4.92-10.49-2.81h0Z"/>
  <path class="cls-1" d="M322.33,270.14l-24.25-14c-3.68-2.13-8.39-.86-10.52,2.82s-.86,8.39,2.82,10.52l24.25,14c3.69,2.12,8.39.84,10.51-2.85,2.11-3.68.85-8.36-2.81-10.49Z"/>
  <path class="cls-1" d="M294.22,119.11c1.35,0,2.67-.36,3.84-1.03l24.25-14c3.68-2.14,4.93-6.85,2.79-10.52-2.13-3.66-6.81-4.92-10.49-2.81l-24.25,14c-3.68,2.13-4.95,6.83-2.82,10.52,1.38,2.39,3.92,3.85,6.68,3.85Z"/>
  <path class="cls-1" d="M163.09,43.43c4.25,0,7.7-3.45,7.7-7.7V7.73C170.81,3.47,167.37.01,163.12,0c-4.25-.01-7.71,3.42-7.73,7.67,0,.02,0,.04,0,.05v28c0,4.25,3.45,7.7,7.7,7.7Z"/>
  <path class="cls-1" d="M35.83,104.74l-24.25-14c-3.68-2.14-8.39-.89-10.52,2.79s-.89,8.39,2.79,10.52c.01,0,.02.01.04.02l24.25,14c3.68,2.13,8.39.86,10.52-2.82,2.13-3.68.86-8.39-2.82-10.52h0Z"/>
  <path class="cls-1" d="M28.11,256.14l-24.25,14c-3.69,2.12-4.96,6.82-2.84,10.51,2.12,3.69,6.82,4.96,10.51,2.84.01,0,.02-.01.03-.02l24.25-14c3.68-2.13,4.95-6.83,2.82-10.52s-6.83-4.95-10.52-2.82h0Z"/>
</svg>