<?xml version="1.0" encoding="utf-8"?>
<!-- Generator: Adobe Illustrator 28.1.0, SVG Export Plug-In . SVG Version: 6.00 Build 0)  -->
<svg version="1.1" id="Ebene_1" xmlns="http://www.w3.org/2000/svg" xmlns:xlink="http://www.w3.org/1999/xlink" x="0px" y="0px"
	 viewBox="0 0 298.8 285.5" style="enable-background:new 0 0 298.8 285.5;" xml:space="preserve">
<g>
	<path d="M149.7,123c-0.7,2-1.7,3.8-2.8,5.4l42.4-15.4c4.2-1.5,6.3-6.1,4.8-10.2c-1.5-4.2-6.1-6.3-10.2-4.8l-33.2,12
		C151.6,114.4,151.2,118.8,149.7,123z"/>
	<path d="M12.5,228.3l61.8,0c4.6,0,8.8-2.5,11-6.6c2.2-4,2-9-0.5-12.8l-22.1-33.8c8-6.3,17.4-11.6,25.9-15.9l-3.7-17.6
		c-0.6-2.6-0.1-5.3,1.4-7.5c1.5-2.2,3.7-3.8,6.3-4.3c0.7-0.1,1.4-0.2,2.1-0.2c4.7,0,8.8,3.3,9.8,7.9l2.4,11.3
		c2.4-2.3,4.2-4.9,5.2-7.7l7.8-2.8c-6.6-1.9-12.3-6.7-15.3-13.1c-0.4-0.8-0.7-1.6-1-2.4c-5.4-2.9-12.7-3.9-21.1-0.9
		c-20,7.2-31.2,14.2-47.1,30c-10.7,12.4-5.1,22.1,0.6,29.2c0.9,1.1,1.7,2.1,2.5,2.9l12.6,19.3H12.5c-6.9,0-12.5,5.6-12.5,12.5
		S5.6,228.3,12.5,228.3z"/>
	<ellipse transform="matrix(0.9045 -0.4265 0.4265 0.9045 -36.8486 64.9848)" cx="126.7" cy="114.8" rx="22.5" ry="22.5"/>
	<path d="M102.4,137.9c-0.9-4.3-5.2-7.1-9.5-6.2c-4.3,0.9-7.1,5.2-6.2,9.5l16.9,80.1c0.8,3.8,4.1,6.4,7.8,6.4c0.5,0,1.1-0.1,1.7-0.2
		c4.3-0.9,7.1-5.2,6.2-9.5L102.4,137.9z"/>
	<path d="M76.5,107.9C76.6,107.9,76.6,107.9,76.5,107.9l14-0.9c0.8-0.1,1.5-0.8,1.4-1.6c-0.1-0.8-0.8-1.5-1.6-1.4l-9.2,0.6l8.4-6.9
		c0.4-0.3,0.6-0.8,0.5-1.4c-0.1-0.5-0.4-1-0.9-1.2L81.6,92l9.3-3c0.5-0.2,0.9-0.6,1-1c0.1-0.5,0-1-0.3-1.4l-8.7-9.6l12.2,2.5
		c0.5,0.1,1,0,1.3-0.4s0.5-0.8,0.5-1.3l-1.7-11.3l9.4,8.3c0.4,0.3,0.9,0.5,1.4,0.3c0.5-0.1,0.9-0.5,1-1l3.1-10.2l4.9,13
		c0.2,0.4,0.5,0.8,1,0.9c0.4,0.1,0.9,0.1,1.3-0.2l6.5-4.5l-1.5,7.6c-0.2,0.8,0.4,1.6,1.2,1.8c0.8,0.2,1.6-0.4,1.8-1.2h0l2.1-11.2
		c0.1-0.6-0.1-1.2-0.7-1.5c-0.5-0.3-1.2-0.3-1.7,0l-7.9,5.5l-5.8-15.3c-0.2-0.6-0.8-1-1.5-1c-0.6,0-1.2,0.4-1.4,1.1L104.8,71
		L94,61.5c-0.5-0.4-1.2-0.5-1.7-0.2c-0.6,0.3-0.9,0.9-0.8,1.5l2,13.2l-14.6-3c-0.6-0.1-1.3,0.2-1.6,0.7c-0.3,0.6-0.2,1.3,0.2,1.8
		l10.2,11.3l-10.9,3.5c-0.6,0.2-1,0.7-1,1.4c0,0.6,0.3,1.2,0.9,1.4l8.9,3.8l-10.1,8.3c-0.5,0.4-0.7,1.1-0.4,1.7
		C75.4,107.5,75.9,107.9,76.5,107.9z"/>
	<path d="M145.9,74.7c0.6-0.6,1.1-1.4,1.4-2.3c0.4-1.3,1.2-2.9,2.4-4.8c1.1-1.9,2.4-3.9,3.6-6.2c1.3-2.2,2-3.6,2.1-3.9
		c0.1-0.5,0-1-0.3-1.5c-0.4-0.5-0.8-0.9-1.4-1.1c-0.5-0.1-1.2-0.1-2,0.2c-0.9,0.3-1.5,0.9-1.9,1.8c-0.4,0.9-0.7,1.5-0.7,1.6
		c-0.5,1.5-1.5,3.6-3,6.4c-1.4,2.6-2.4,5.2-3,7.9C143.6,73.7,144.6,74.2,145.9,74.7z"/>
	<path d="M140.3,83.1c0.5,0.1,1.2,0.1,2.1-0.1c0.9-0.2,1.5-0.8,1.9-1.6l0.6-1.2c0.1-0.3-0.1-0.8-0.7-1.4c-0.5-0.7-1.1-1-1.5-1.2
		c-0.7-0.2-1.5,0-2.3,0.6c-0.8,0.6-1.4,1.2-1.6,1.9C138.3,81.6,138.8,82.6,140.3,83.1z"/>
	<path d="M157.9,80.6c1.1,0.4,2,0.4,2.6,0.2c0.6-0.2,1-0.6,1.4-1.3c0.7-1.2,1.3-2.3,2-3.1c3.7-0.1,6.2-0.3,7.4-0.5
		c1.2-0.2,2.4-0.8,3.6-1.8c1.2-1,2.1-2.5,2.7-4.5l0,0c0.5-1.8,0.7-3.2,0.6-4.2c-0.1-1-0.8-2.2-2-3.6c-0.7-0.9-1.8-1.5-3.3-1.9
		c-0.8-0.2-1.6-0.4-2.4-0.6c-1.1-0.3-2.3-0.3-3.5,0l0,0c-1.4,0.3-2.6,0.8-3.7,1.4c-1.1,0.7-1.7,1.4-1.9,2.1c-0.4,1.2,0.1,2,1.3,2.3
		c1.9,0.6,3.1,0.3,3.6-0.9c0.2-0.3,0.6-0.6,1.2-0.8c0.6-0.2,1.7-0.1,3.1,0.4c0.5,0.1,1,0.4,1.4,0.7c0.4,0.3,0.7,0.6,0.8,0.8
		c0.1,0.2,0.2,0.8,0.1,1.6c0,0.8-0.1,1.5-0.3,1.9c-0.2,0.6-0.6,1.2-1.1,1.8c-0.5,0.6-1.1,0.9-1.6,0.9l-3,0.2
		c-1.9,0.2-3.2,0.3-3.9,0.4c-0.7,0.1-1.5,0.4-2.4,0.8c-1.3,1.4-2.2,2.4-2.5,2.8c-0.4,0.5-0.6,1-0.8,1.7c-0.2,0.6-0.2,1.2-0.2,1.8
		C157.3,80.1,157.5,80.5,157.9,80.6z"/>
	<path d="M154.6,83.7c-1.3,0.4-2,0.9-2.2,1.5c-0.2,0.8-0.1,1.5,0.3,2.1c0.4,0.7,1.1,1.1,1.9,1.4c0.8,0.2,1.8,0.2,2.9-0.1
		c1.1-0.3,1.8-0.9,2-1.7c0.3-1.1-0.1-1.8-1.3-2.3c-0.5-0.7-1-1-1.4-1.2c-0.6-0.2-1.1-0.2-1.6,0C155,83.6,154.8,83.6,154.6,83.7z"/>
	<ellipse cx="274.8" cy="22.5" rx="22.5" ry="22.5"/>
	<path d="M251.8,93.6c-4.4-8.1-6.7-17.6-6.8-27.4c0-2.1,0.1-3.6,0.2-4.3c0.6-5.1,4.8-8.9,9.9-8.9c0.4,0,0.8,0,1.1,0.1
		c5.5,0.6,9.4,5.6,8.8,11.1l0,0.4c0,0.4,0,1,0,1.7c0,2.3,0.3,10.1,4.1,17.4c0.9-4.9,1.9-9.5,2.7-13.6c2.9-10-0.9-21.9-9.4-24
		c-4.9-1.2-11.1-0.2-16.4,3.6c-4.1,2.2-9.6,5.6-15.3,10.6c-11.5,10-24.1,26.6-28.5,51.8c-0.8,4.4,2.2,8.5,6.5,9.2
		c0.5,0.1,0.9,0.1,1.4,0.1c3.8,0,7.2-2.7,7.9-6.6c2.3-13.5,7.3-23.6,13-31.4c-1.9,10.8-1.9,21.3-0.3,35.3c1.5,7.9,5,12.3,9.2,14.8
		c0.7,4.2,1.3,9.4,1.3,15.1c0,8.8-1.3,18.7-5.3,28.6c-4,9.9-10.5,19.9-21.7,29.1c-5.3,4.4-6.1,12.3-1.7,17.6
		c4.4,5.3,12.3,6.1,17.6,1.7c14.4-11.8,23.7-25.6,29-39.1c1.8-4.6,3.2-9.1,4.3-13.5c3.8,12.2,6.9,26.9,8.3,43.9
		c0.5,6.6,6,11.5,12.5,11.5c0.3,0,0.6,0,1,0c6.9-0.5,12-6.5,11.5-13.4c-3.7-47.5-20-79-30.1-94.2c-0.4-3.5-0.6-7.2-0.5-10.8
		C258.5,104.3,254.1,98,251.8,93.6z"/>
	<path d="M292.7,102.5c-14.4-3.5-21-10.3-25-17.5c-3.9-7.1-4.6-15-4.6-18.9c0-0.8,0-1.5,0.1-1.9c0-0.2,0-0.3,0-0.4l0,0
		c0.5-4.4-2.7-8.4-7-8.9c-4.4-0.5-8.4,2.7-8.9,7h0c0,0.3-0.2,1.7-0.2,4.1c0,5.5,0.8,15.9,6.5,26.5c5.7,10.7,17,21.2,35.5,25.4
		c0.6,0.1,1.2,0.2,1.8,0.2c3.6,0,6.9-2.5,7.8-6.2C299.6,107.8,297,103.5,292.7,102.5z"/>
</g>
</svg>
